# xmcd
#
# Track frame offsets:
#	150
#	9231
#	17538
#	27059
#	35699
#	45195
#	55049
#	65545
#	75954
#	85344
#	95877
#	105388
#	115037
#	128004
#	138419
#	150993
#	164222
#	176706
#	187011
#	199722
#	210514
#	225630
#	246859
#	261646
#
# Disc length: 3643 seconds
#
# Revision: 1
# Processed by: cddbd v1.4PL0 Copyright (c) Steve Scherf et al.
# Submitted via: audiograbber 1.82.02
#
DISCID=360e3918
DTITLE=The Everly Brothers - The Definitive Everly Brothers (2 of 2)
DYEAR=1900
DGENRE=
TTITLE0=Crying In the Rain
TTITLE1=How Can I Meet Her
TTITLE2=No One Can Make My Sunshine Smile
TTITLE3=(So It Was ... So It Is) So It Always Will Be
TTITLE4=It's Been Nice (Goodnight)
TTITLE5=The Girl Sang The Blues
TTITLE6=Love Her
TTITLE7=The Ferris Wheel
TTITLE8=Gone, Gone, Gone
TTITLE9=That'll Be The Day
TTITLE10=The Price Of Love
TTITLE11=I'll Never Get Over You
TTITLE12=Love Is Strange
TTITLE13=It's All Over
TTITLE14=Bowling Green
TTITLE15=It's My Time
TTITLE16=Empty Boxes
TTITLE17=Be Bop A Lula
TTITLE18=Milk Train
TTITLE19=That's Old Fashioned (That's The Way Love Should Be)
TTITLE20=Stories We Could Tell
TTITLE21=Green River
TTITLE22=Lay It Down
TTITLE23=On The Wings Of A Nightingale
EXTD=
EXTT0=
EXTT1=
EXTT2=
EXTT3=
EXTT4=
EXTT5=
EXTT6=
EXTT7=
EXTT8=
EXTT9=
EXTT10=
EXTT11=
EXTT12=
EXTT13=
EXTT14=
EXTT15=
EXTT16=
EXTT17=
EXTT18=
EXTT19=
EXTT20=
EXTT21=
EXTT22=
EXTT23=
PLAYORDER=
